<?xml version="1.0" encoding="UTF-8" standalone="no"?>
<svg
   width="192"
   height="192"
   fill="#000000"
   viewBox="0 0 256 256"
   style="--darkreader-inline-fill: #000000;"
   data-darkreader-inline-fill=""
   version="1.1"
   id="svg6"
   sodipodi:docname="cloud-fog.svg"
   inkscape:version="1.2.2 (b0a8486541, 2022-12-01)"
   xmlns:inkscape="http://www.inkscape.org/namespaces/inkscape"
   xmlns:sodipodi="http://sodipodi.sourceforge.net/DTD/sodipodi-0.dtd"
   xmlns="http://www.w3.org/2000/svg"
   xmlns:svg="http://www.w3.org/2000/svg">
  <defs
     id="defs10" />
  <sodipodi:namedview
     id="namedview8"
     pagecolor="#ffffff"
     bordercolor="#000000"
     borderopacity="0.25"
     inkscape:showpageshadow="2"
     inkscape:pageopacity="0.0"
     inkscape:pagecheckerboard="0"
     inkscape:deskcolor="#d1d1d1"
     showgrid="false"
     inkscape:zoom="3.03125"
     inkscape:cx="96"
     inkscape:cy="96"
     inkscape:window-width="1600"
     inkscape:window-height="831"
     inkscape:window-x="0"
     inkscape:window-y="0"
     inkscape:window-maximized="1"
     inkscape:current-layer="svg6" />
  <rect
     width="256"
     height="256"
     fill="none"
     id="rect2" />
  <path
     d="M168,224a8,8,0,0,1-8,8H104a8,8,0,0,1,0-16h56A8,8,0,0,1,168,224Zm-40-32a8,8,0,0,0-8-8H72a8,8,0,0,0,0,16h48A8,8,0,0,0,128,192Zm56-8H160a8,8,0,0,0,0,16h24a8,8,0,0,0,0-16ZM159.3,16.1A76.1,76.1,0,0,0,85,64.8h0a76.4,76.4,0,0,0-5,26.9,8.3,8.3,0,0,1-7.4,8.3A8,8,0,0,1,64,92a88.2,88.2,0,0,1,2.5-21.1,4,4,0,0,0-5-4.8A52,52,0,0,0,24,116.3C24.2,145,48.1,168,76.8,168H156a76,76,0,0,0,3.3-151.9Z"
     id="path4"
     style="fill:#a9bec3;fill-opacity:1" />
</svg>
