<?xml version="1.0" encoding="UTF-8" standalone="no"?>
<svg
   width="192"
   height="192"
   fill="#000000"
   viewBox="0 0 256 256"
   style="--darkreader-inline-fill: #000000;"
   data-darkreader-inline-fill=""
   version="1.1"
   id="svg6"
   sodipodi:docname="cloud-sun-fill.svg"
   inkscape:version="1.2.2 (b0a8486541, 2022-12-01)"
   xmlns:inkscape="http://www.inkscape.org/namespaces/inkscape"
   xmlns:sodipodi="http://sodipodi.sourceforge.net/DTD/sodipodi-0.dtd"
   xmlns="http://www.w3.org/2000/svg"
   xmlns:svg="http://www.w3.org/2000/svg">
  <defs
     id="defs10" />
  <sodipodi:namedview
     id="namedview8"
     pagecolor="#ffffff"
     bordercolor="#000000"
     borderopacity="0.25"
     inkscape:showpageshadow="2"
     inkscape:pageopacity="0.0"
     inkscape:pagecheckerboard="0"
     inkscape:deskcolor="#d1d1d1"
     showgrid="false"
     inkscape:zoom="2.40511"
     inkscape:cx="36.588763"
     inkscape:cy="87.314094"
     inkscape:window-width="1600"
     inkscape:window-height="831"
     inkscape:window-x="0"
     inkscape:window-y="0"
     inkscape:window-maximized="1"
     inkscape:current-layer="svg6" />
  <rect
     width="256"
     height="256"
     fill="none"
     id="rect2" />
  <path
     d="m 156,72 a 78.8,78.8 0 0 0 -20.2,2.7 58.9,58.9 0 0 0 -9.4,-11.5 l 9.4,-13.6 a 7.9,7.9 0 0 0 -1.9,-11.1 8,8 0 0 0 -11.2,1.9 L 113.2,54 A 55,55 0 0 0 86.3,48 L 83.4,31.7 a 8.0230917,8.0230917 0 1 0 -15.8,2.8 l 2.9,16.3 A 55.7,55.7 0 0 0 47.2,65.6 L 33.6,56.1 a 8,8 0 0 0 -11.1,2 7.9,7.9 0 0 0 1.9,11.1 L 38,78.7 a 55.1,55.1 0 0 0 -6,27 l -16.3,2.9 a 8,8 0 0 0 1.4,15.9 h 1.4 l 16.3,-2.9 A 52.3,52.3 0 0 0 40.7,134 51.9,51.9 0 0 0 76,224 h 80 A 76,76 0 0 0 156,72 Z M 48.6,111.1 v -0.4 A 39.6,39.6 0 0 1 55.1,81.2 V 81 h 0.1 A 40.1,40.1 0 0 1 80.8,64.6 h 0.5 a 39.5,39.5 0 0 1 29.1,6.3 l 0.5,0.3 0.4,0.3 a 37.4,37.4 0 0 1 9.3,9.3 76.6,76.6 0 0 0 -35.6,40 53.8,53.8 0 0 0 -9,-0.8 52.6,52.6 0 0 0 -22.1,4.9 40,40 0 0 1 -5.3,-13.8 z"
     id="path4"
     style="display:inline;fill:#ffdb19;fill-opacity:1" />
  <path
     id="path921"
     d="M 116.34747,82.559362 C 103.25419,90.253253 91.668094,103.61755 85,120.79948 82.027743,120.28092 79.017122,120.01383 76,120 68.365024,120.0101 60.824774,121.68314 53.901042,124.90104 47.210516,129.21817 45.189937,130.76263 40.700521,134 25.01225,148.51143 19.821726,171.15705 27.625,191.05208 35.428273,210.94711 54.629394,224.02389 76,224 h 80 c 41.97363,0 76,-34.0264 76,-76 0,-41.9736 -34.02637,-76 -76,-76 -17.22525,0.09581 -26.55926,2.865471 -39.65253,10.559362 z"
     sodipodi:nodetypes="zccccscsscz"
     style="fill:#a9bec3;fill-opacity:1" />
</svg>
