<?xml version="1.0" encoding="UTF-8" standalone="no"?>
<svg
   width="192"
   height="192"
   fill="#000000"
   viewBox="0 0 256 256"
   style="--darkreader-inline-fill: #000000;"
   data-darkreader-inline-fill=""
   version="1.1"
   id="svg6"
   sodipodi:docname="cloud-rain-fill.svg"
   inkscape:version="1.2.2 (b0a8486541, 2022-12-01)"
   xmlns:inkscape="http://www.inkscape.org/namespaces/inkscape"
   xmlns:sodipodi="http://sodipodi.sourceforge.net/DTD/sodipodi-0.dtd"
   xmlns="http://www.w3.org/2000/svg"
   xmlns:svg="http://www.w3.org/2000/svg">
  <defs
     id="defs10" />
  <sodipodi:namedview
     id="namedview8"
     pagecolor="#ffffff"
     bordercolor="#000000"
     borderopacity="0.25"
     inkscape:showpageshadow="2"
     inkscape:pageopacity="0.0"
     inkscape:pagecheckerboard="0"
     inkscape:deskcolor="#d1d1d1"
     showgrid="false"
     inkscape:zoom="3.03125"
     inkscape:cx="96"
     inkscape:cy="96"
     inkscape:window-width="1600"
     inkscape:window-height="831"
     inkscape:window-x="0"
     inkscape:window-y="0"
     inkscape:window-maximized="1"
     inkscape:current-layer="svg6" />
  <rect
     width="256"
     height="256"
     fill="none"
     id="rect2" />
  <path
     d="M160.9,204.4l-26.2,40A8.2,8.2,0,0,1,128,248a8,8,0,0,1-6.7-12.4l26.3-40a8,8,0,1,1,13.3,8.8ZM159.3,16.1A76.1,76.1,0,0,0,85,64.8h0a74.8,74.8,0,0,0-5,26.9,8.3,8.3,0,0,1-7.4,8.3A8,8,0,0,1,64,92a91.6,91.6,0,0,1,2.4-21.1,4,4,0,0,0-5-4.8A52.1,52.1,0,0,0,24,116.3C24.2,145,48.1,168,76.8,168h38.6L92.2,203.4A8,8,0,0,0,98.7,216a8,8,0,0,0,6.7-3.6L134.6,168H156a76,76,0,0,0,3.3-151.9Z"
     id="path4"
     style="fill:#a9bec3;fill-opacity:1" />
  <path
     d="m 160.9,204.4 -26.2,40 c -1.50809,2.22583 -4.01154,3.57097 -6.7,3.6 -6.3776,0.0149 -10.20771,-7.07365 -6.7,-12.4 l 26.3,-40 c 2.25541,-4.09275 7.52375,-5.38926 11.42096,-2.81066 3.89721,2.57861 4.76399,7.93445 1.87904,11.61066 z M 115.4,168 92.2,203.4 c -3.713757,5.284 0.04157,12.56356 6.5,12.6 2.69743,0.006 5.21641,-1.34719 6.7,-3.6 L 134.6,168 Z"
     id="path797"
     sodipodi:nodetypes="cccccsccccccc"
     style="fill:#1badcf;fill-opacity:1" />
</svg>
