<?xml version="1.0" encoding="UTF-8" standalone="no"?>
<svg
   width="192"
   height="192"
   fill="#000000"
   viewBox="0 0 256 256"
   style="--darkreader-inline-fill: #000000;"
   data-darkreader-inline-fill=""
   version="1.1"
   id="svg6"
   sodipodi:docname="cloud-lightning.svg"
   inkscape:version="1.2.2 (b0a8486541, 2022-12-01)"
   xmlns:inkscape="http://www.inkscape.org/namespaces/inkscape"
   xmlns:sodipodi="http://sodipodi.sourceforge.net/DTD/sodipodi-0.dtd"
   xmlns="http://www.w3.org/2000/svg"
   xmlns:svg="http://www.w3.org/2000/svg">
  <defs
     id="defs10" />
  <sodipodi:namedview
     id="namedview8"
     pagecolor="#ffffff"
     bordercolor="#000000"
     borderopacity="0.25"
     inkscape:showpageshadow="2"
     inkscape:pageopacity="0.0"
     inkscape:pagecheckerboard="0"
     inkscape:deskcolor="#d1d1d1"
     showgrid="false"
     inkscape:zoom="3.03125"
     inkscape:cx="96"
     inkscape:cy="96"
     inkscape:window-width="1600"
     inkscape:window-height="831"
     inkscape:window-x="0"
     inkscape:window-y="0"
     inkscape:window-maximized="1"
     inkscape:current-layer="svg6" />
  <rect
     width="256"
     height="256"
     fill="none"
     id="rect2" />
  <path
     d="m 134.6,168 -15.8,24 H 154 a 8,8 0 0 1 6.2,2.7 7.8,7.8 0 0 1 0.7,9.7 l -26.2,40 a 8.2,8.2 0 0 1 -6.7,3.6 8.4,8.4 0 0 1 -5.1,-1.8 8.3,8.3 0 0 1 -1.5,-10.8 l 18,-27.4 H 104.2 A 8.3,8.3 0 0 1 98,205.3 8.1,8.1 0 0 1 97.3,195.6 L 115.4,168 H 76.8 C 48.1,168 24.2,145 24,116.3 a 52,52 0 0 1 37.5,-50.2 4,4 0 0 1 5,4.7 91.4,91.4 0 0 0 -2.5,21 8.3,8.3 0 0 0 7.5,8.2 8,8 0 0 0 8.5,-8 76.4,76.4 0 0 1 5,-27.2 v 0 A 76,76 0 1 1 156,168 Z"
     id="path4"
     style="display:inline;fill:#a9bec3;fill-opacity:1" />
  <path
     d="m 134.6,168 -15.8,24 H 154 c 2.36416,-0.0607 4.63401,0.92783 6.2,2.7 2.4672,2.6743 2.75765,6.69916 0.7,9.7 l -26.2,40 c -1.50809,2.22583 -4.01154,3.57097 -6.7,3.6 -1.85195,-0.0214 -3.64492,-0.65417 -5.1,-1.8 -3.12614,-2.72067 -3.76638,-7.33037 -1.5,-10.8 l 18,-27.4 h -35.2 c -2.35623,0.0209 -4.610284,-0.96073 -6.2,-2.7 -2.364377,-2.71793 -2.649632,-6.67075 -0.7,-9.7 L 115.4,168 Z"
     id="path847"
     sodipodi:nodetypes="ccccccccccccccc"
     style="fill:#3e498b;fill-opacity:1" />
</svg>
