<?xml version="1.0" encoding="UTF-8" standalone="no"?>
<svg
   width="192"
   height="192"
   fill="#000000"
   viewBox="0 0 256 256"
   style="--darkreader-inline-fill: #000000;"
   data-darkreader-inline-fill=""
   version="1.1"
   id="svg22"
   sodipodi:docname="sun-fill.svg"
   inkscape:version="1.2.2 (b0a8486541, 2022-12-01)"
   xmlns:inkscape="http://www.inkscape.org/namespaces/inkscape"
   xmlns:sodipodi="http://sodipodi.sourceforge.net/DTD/sodipodi-0.dtd"
   xmlns="http://www.w3.org/2000/svg"
   xmlns:svg="http://www.w3.org/2000/svg">
  <defs
     id="defs26" />
  <sodipodi:namedview
     id="namedview24"
     pagecolor="#ffffff"
     bordercolor="#000000"
     borderopacity="0.25"
     inkscape:showpageshadow="2"
     inkscape:pageopacity="0.0"
     inkscape:pagecheckerboard="0"
     inkscape:deskcolor="#d1d1d1"
     showgrid="false"
     inkscape:zoom="3.03125"
     inkscape:cx="96"
     inkscape:cy="96"
     inkscape:window-width="1600"
     inkscape:window-height="831"
     inkscape:window-x="0"
     inkscape:window-y="0"
     inkscape:window-maximized="1"
     inkscape:current-layer="svg22" />
  <rect
     width="256"
     height="256"
     fill="none"
     id="rect2" />
  <circle
     cx="128"
     cy="128"
     r="68"
     id="circle4"
     style="fill:#ffdb19;fill-opacity:1" />
  <path
     d="M128,44a8,8,0,0,0,8-8V16a8,8,0,0,0-16,0V36A8,8,0,0,0,128,44Z"
     id="path6"
     style="fill:#ffdb19;fill-opacity:1" />
  <path
     d="M57.3,68.6a8.1,8.1,0,0,0,11.3,0,8,8,0,0,0,0-11.3L54.5,43.1A8.1,8.1,0,1,0,43.1,54.5Z"
     id="path8"
     style="fill:#ffdb19;fill-opacity:1" />
  <path
     d="M44,128a8,8,0,0,0-8-8H16a8,8,0,0,0,0,16H36A8,8,0,0,0,44,128Z"
     id="path10"
     style="fill:#ffdb19;fill-opacity:1" />
  <path
     d="M57.3,187.4,43.1,201.5a8.1,8.1,0,0,0,0,11.4,8.5,8.5,0,0,0,5.7,2.3,8.3,8.3,0,0,0,5.7-2.3l14.1-14.2a8,8,0,0,0-11.3-11.3Z"
     id="path12"
     style="fill:#ffdb19;fill-opacity:1" />
  <path
     d="M128,212a8,8,0,0,0-8,8v20a8,8,0,0,0,16,0V220A8,8,0,0,0,128,212Z"
     id="path14"
     style="fill:#ffdb19;fill-opacity:1" />
  <path
     d="M198.7,187.4a8,8,0,0,0-11.3,11.3l14.1,14.2a8.3,8.3,0,0,0,5.7,2.3,8.5,8.5,0,0,0,5.7-2.3,8.1,8.1,0,0,0,0-11.4Z"
     id="path16"
     style="fill:#ffdb19;fill-opacity:1" />
  <path
     d="M240,120H220a8,8,0,0,0,0,16h20a8,8,0,0,0,0-16Z"
     id="path18"
     style="fill:#ffdb19;fill-opacity:1" />
  <path
     d="M193.1,70.9a7.8,7.8,0,0,0,5.6-2.3l14.2-14.1a8.1,8.1,0,0,0-11.4-11.4L187.4,57.3a8,8,0,0,0,0,11.3A7.8,7.8,0,0,0,193.1,70.9Z"
     id="path20"
     style="fill:#ffdb19;fill-opacity:1" />
</svg>
